<svg width="900" height="480" xmlns="http://www.w3.org/2000/svg" class="diagram-root">
 <style>.diagram-root { font-family: "Helvetica Neue", sans-serif; font-size: 12px; } .t { overflow: visible; } .t-bg
        { y: 40; fill: #fff; } .th { fill: #005aa0; } .tht { fill: #fff; font-size: 14px; } .tf { fill: #323c46;
        overflow: visible; } .tf.pk { fill: #005aa0; font-weight: bold; } .tf.fk { font-weight: bold; } .ty { fill:
        #adb1b5; font-weight: normal; text-anchor: end; } .r { fill: transparent; stroke: #c3c3c3; stroke-width: 1; } .l
        { stroke: 1; } .i { fill: #c2c7ce; stroke: #c2c7ce; } .i.ix { fill: #afb3b6; stroke: #000; } .fa { fill:
        transparent; overflow: visible; } .fa .bg.hover { fill: #f7f7f7; } .c { cy: 12; r: 4; stroke: #d2d2dc; fill:
        #d2d2dc; } .hr { fill: transparent; stroke: #323c46; stroke-opacity: 0.035; stroke-width: 13; } .dc { stroke:
        #fa5a3c; fill: #fa5a3c; } .x { stroke: white; stroke-width: 1; } .hl .th { fill: #1b9bff; } .hl .tht { } .fhl
        .bg { fill: #e7f4ff; } .fhls .bg { } .r.hl { stroke: #1b9bff; } .dim { opacity: 0.25; }</style>

 <g>
  <title>background</title>
  <rect fill="none" id="canvas_background" height="482" width="902" y="-1" x="-1"/>
 </g>
 <g>
  <title>Layer 1</title>
  <g id="svg_9" transform="translate(2,18) scale(1) " class="drawing-wrapper">
   <g id="svg_10" class="rs">
    <path class="r" id="h4196210035" d="m382,348m-1,0a1,1 0 1 0 2,0a1,1 0 1 0 -2,0m1,0m-0.5,0a0.5,0.5 0 1 0 1,0a0.5,0.5 0 1 0 -1,0m0.5,0l0,0l-12,0m12,6m-1,0a1,1 0 1 0 2,0a1,1 0 1 0 -2,0m1,0m-0.5,0a0.5,0.5 0 1 0 1,0a0.5,0.5 0 1 0 -1,0m0.5,0l0,0l-7,-6l7,-6m0,0m-1,0a1,1 0 1 0 2,0a1,1 0 1 0 -2,0m1,0m-0.5,0a0.5,0.5 0 1 0 1,0a0.5,0.5 0 1 0 -1,0m-11.5,6q-36.98,0 -73.97,-130.5t-73.96,-130.5m-12,0m-1,0a1,1 0 1 0 2,0a1,1 0 1 0 -2,0m1,0m-0.5,0a0.5,0.5 0 1 0 1,0a0.5,0.5 0 1 0 -1,0m0.5,0l0,0l12,0m-6,6l0,0l0,-12"/>
    <path class="r" id="h3101616472" d="m691,279m-1,0a1,1 0 1 0 2,0a1,1 0 1 0 -2,0m1,0m-0.5,0a0.5,0.5 0 1 0 1,0a0.5,0.5 0 1 0 -1,0m0.5,0l0,0l-12,0m12,6m-1,0a1,1 0 1 0 2,0a1,1 0 1 0 -2,0m1,0m-0.5,0a0.5,0.5 0 1 0 1,0a0.5,0.5 0 1 0 -1,0m0.5,0l0,0l-7,-6l7,-6m0,0m-1,0a1,1 0 1 0 2,0a1,1 0 1 0 -2,0m1,0m-0.5,0a0.5,0.5 0 1 0 1,0a0.5,0.5 0 1 0 -1,0m-11.5,6q-32.41,0 -64.82,22t-64.82,22m-12,0m-1,0a1,1 0 1 0 2,0a1,1 0 1 0 -2,0m1,0m-0.5,0a0.5,0.5 0 1 0 1,0a0.5,0.5 0 1 0 -1,0m0.5,0l0,0l12,0m-6,6l0,0l0,-12"/>
    <path class="r" id="h3155468423" d="m453,129m-1,0a1,1 0 1 0 2,0a1,1 0 1 0 -2,0m1,0m-0.5,0a0.5,0.5 0 1 0 1,0a0.5,0.5 0 1 0 -1,0m0.5,0l0,0l-12,0m12,6m-1,0a1,1 0 1 0 2,0a1,1 0 1 0 -2,0m1,0m-0.5,0a0.5,0.5 0 1 0 1,0a0.5,0.5 0 1 0 -1,0m0.5,0l0,0l-7,-6l7,-6m0,0m-1,0a1,1 0 1 0 2,0a1,1 0 1 0 -2,0m1,0m-0.5,0a0.5,0.5 0 1 0 1,0a0.5,0.5 0 1 0 -1,0m-11.5,6q-54.73,0 -109.46,-21t-109.47,-21m-12,0m-1,0a1,1 0 1 0 2,0a1,1 0 1 0 -2,0m1,0m-0.5,0a0.5,0.5 0 1 0 1,0a0.5,0.5 0 1 0 -1,0m0.5,0l0,0l12,0m-6,6l0,0l0,-12"/>
   </g>
   <g id="svg_11" class="hrs"/>
   <g id="svg_12" class="ts">
    <g id="svg_2">
     <svg class="t" id="svg_1" y="30" x="30" height="175" width="180.07">
      <rect id="svg_13" class="th" width="180.07" height="40"/>
      <text id="svg_14" class="tht" y="25" x="13">users</text>
      <rect id="svg_15" class="t-bg" width="180.07" height="135"/>
      <text id="svg_16" class="tf pk" y="61" x="13">userid
       <tspan id="svg_17" class="ty" x="167.07">varchar(36)</tspan></text>
      <path id="svg_18" transform="translate(85.71648406982422,48) scale(0.6499999761581421) " class="i pk" d="m7,14a2,2 0 0 1 -2,-2a2,2 0 0 1 2,-2a2,2 0 0 1 2,2a2,2 0 0 1 -2,2m5.65,-4c-0.82,-2.33 -3.04,-4 -5.65,-4a6,6 0 0 0 -6,6a6,6 0 0 0 6,6c2.61,0 4.83,-1.67 5.65,-4l4.35,0l0,4l4,0l0,-4l2,0l0,-4l-10.35,0z"/>
      <text id="svg_19" class="tf" y="86" x="13">username
       <tspan id="svg_20" class="ty" x="167.07">varchar(16)</tspan></text>
      <text id="svg_21" class="tf" y="111" x="13">passwd
       <tspan id="svg_22" class="ty" x="167.07">varchar(128)</tspan></text>
      <text id="svg_23" class="tf" y="136" x="13">mail
       <tspan id="svg_24" class="ty" x="167.07">varchar(255)</tspan></text>
      <text id="svg_25" class="tf" y="161" x="13">creation_date
       <tspan id="svg_26" class="ty" x="167.07">varchar(19)</tspan></text>
     </svg>
    </g>
    <g id="svg_4">
     <svg class="t" id="svg_3" y="266" x="382" height="150" width="155.36">
      <rect id="svg_27" class="th" width="155.36" height="40"/>
      <text id="svg_28" class="tht" y="25" x="13">passwds</text>
      <rect id="svg_29" class="t-bg" width="155.36" height="110"/>
      <text id="svg_30" class="tf pk" y="61" x="13">entryid
       <tspan id="svg_31" class="ty" x="142.36">INTEGER</tspan></text>
      <path id="svg_32" transform="translate(69.02210998535156,48) scale(0.6499999761581421) " class="i pk" d="m7,14a2,2 0 0 1 -2,-2a2,2 0 0 1 2,-2a2,2 0 0 1 2,2a2,2 0 0 1 -2,2m5.65,-4c-0.82,-2.33 -3.04,-4 -5.65,-4a6,6 0 0 0 -6,6a6,6 0 0 0 6,6c2.61,0 4.83,-1.67 5.65,-4l4.35,0l0,4l4,0l0,-4l2,0l0,-4l-10.35,0z"/>
      <text id="svg_33" class="tf fk" y="86" x="13">userid
       <tspan id="svg_34" class="ty" x="142.36">varchar(36)</tspan></text>
      <text id="svg_35" class="tf" y="111" x="13">url
       <tspan id="svg_36" class="ty" x="142.36">varchar(255)</tspan></text>
      <text id="svg_37" class="tf" y="136" x="13">passwd
       <tspan id="svg_38" class="ty" x="142.36">varchar(32)</tspan></text>
     </svg>
    </g>
    <g id="svg_6">
     <svg class="t" id="svg_5" y="197" x="691" height="150" width="177.39">
      <rect id="svg_39" class="th" width="177.39" height="40"/>
      <text id="svg_40" class="tht" y="25" x="13">custom_data</text>
      <rect id="svg_41" class="t-bg" width="177.39" height="110"/>
      <text id="svg_42" class="tf pk" y="61" x="13">addtionalid
       <tspan id="svg_43" class="ty" x="164.39">INTEGER</tspan></text>
      <path id="svg_44" transform="translate(91.05210876464844,48) scale(0.6499999761581421) " class="i pk" d="m7,14a2,2 0 0 1 -2,-2a2,2 0 0 1 2,-2a2,2 0 0 1 2,2a2,2 0 0 1 -2,2m5.65,-4c-0.82,-2.33 -3.04,-4 -5.65,-4a6,6 0 0 0 -6,6a6,6 0 0 0 6,6c2.61,0 4.83,-1.67 5.65,-4l4.35,0l0,4l4,0l0,-4l2,0l0,-4l-10.35,0z"/>
      <text id="svg_45" class="tf fk" y="86" x="13">entryid
       <tspan id="svg_46" class="ty" x="164.39">INTEGER</tspan></text>
      <text id="svg_47" class="tf" y="111" x="13">name
       <tspan id="svg_48" class="ty" x="164.39">varchar(255)</tspan></text>
      <text id="svg_49" class="tf" y="136" x="13">hidden
       <tspan id="svg_50" class="ty" x="164.39">INTEGER</tspan></text>
     </svg>
    </g>
    <g id="svg_8">
     <svg class="t" id="svg_7" y="47" x="453" height="125" width="177.38">
      <rect id="svg_51" class="th" width="177.38" height="40"/>
      <text id="svg_52" class="tht" y="25" x="13">sessions</text>
      <rect id="svg_53" class="t-bg" width="177.38" height="85"/>
      <text id="svg_54" class="tf pk" y="61" x="13">sessionid
       <tspan id="svg_55" class="ty" x="164.38">varchar(36)</tspan></text>
      <path id="svg_56" transform="translate(83.02648162841797,48) scale(0.6499999761581421) " class="i pk" d="m7,14a2,2 0 0 1 -2,-2a2,2 0 0 1 2,-2a2,2 0 0 1 2,2a2,2 0 0 1 -2,2m5.65,-4c-0.82,-2.33 -3.04,-4 -5.65,-4a6,6 0 0 0 -6,6a6,6 0 0 0 6,6c2.61,0 4.83,-1.67 5.65,-4l4.35,0l0,4l4,0l0,-4l2,0l0,-4l-10.35,0z"/>
      <text id="svg_57" class="tf fk" y="86" x="13">userid
       <tspan id="svg_58" class="ty" x="164.38">varchar(36)</tspan></text>
      <text id="svg_59" class="tf" y="111" x="13">expiredate
       <tspan id="svg_60" class="ty" x="164.38">varchar(19)</tspan></text>
     </svg>
    </g>
   </g>
  </g>
 </g>
</svg>